<svg width="1513" height="512" viewBox="0 0 1513 512" fill="none" xmlns="http://www.w3.org/2000/svg">
<g clip-path="url(#clip0_4022_92)">
<path d="M713.138 40.4312L709.288 60.7042H892.268L896.118 40.4312H713.138Z" fill="#006397"/>
<path d="M772.941 0.03125L769.08 20.3252H899.957L903.818 0.03125H772.941Z" fill="#006397"/>
<path d="M0.402344 310.009L26.917 170.193H67.9273L41.4438 309.988H0.402344V310.019V310.009ZM32.6091 132.724C32.8901 118.708 43.7228 109.28 56.2412 109.28C68.7597 109.28 76.7412 117.269 76.7412 129.574C76.7412 144.153 65.6275 152.736 52.5263 152.736C41.1317 152.736 32.5779 145.029 32.5779 132.713H32.6091V132.724Z" fill="black"/>
<path d="M75.9038 310.009L93.5629 215.662C96.9761 197.944 99.2654 182.499 100.962 170.215H137.414L134.563 193.376H135.125C148.226 175.064 165.604 167.076 184.127 167.076C206.916 167.076 219.747 181.092 219.747 205.098C219.747 211.376 218.602 221.982 217.457 228.823L202.067 310.02H161.057L175.583 232.556C176.447 227.707 177.009 221.982 177.009 216.83C177.009 207.1 173.606 200.259 163.346 200.259C149.964 200.259 134.292 217.143 128.59 248.012L116.914 310.061H75.9038V310.03V310.009Z" fill="black"/>
<path d="M241.394 273.113C249.386 277.128 264.465 282.843 277.847 282.843C289.522 282.843 295.506 277.128 295.506 270.255C295.506 263.383 290.948 258.534 278.128 252.256C261.894 244.236 248.512 232.515 248.512 215.078C248.512 186.201 273.882 167.055 309.741 167.055C325.975 167.055 338.795 170.194 345.642 174.198L335.944 203.356C329.971 200.499 320.272 197.078 308.035 197.078C297.192 197.078 289.793 201.928 289.793 209.363C289.793 215.078 295.496 219.938 306.89 225.371C321.979 233.078 337.952 244.236 337.952 263.675C337.952 295.691 310.886 312.856 274.153 312.856C256.494 312.856 239.677 308.288 231.415 301.979L241.384 273.102V273.134L241.394 273.113Z" fill="black"/>
<path d="M433.68 131.014L426.281 170.183H455.917L449.944 201.333H420.308L410.922 248.804C409.777 254.529 408.632 261.673 408.632 266.522C408.632 273.394 411.484 278.244 420.308 278.244C424.023 278.244 427.988 278.244 431.703 277.68L426.874 309.978C421.734 311.969 411.484 313.117 402.659 313.117C378.163 313.117 366.488 300.529 366.488 283.093C366.488 275.386 367.352 267.648 369.339 257.074L380.182 201.312H362.523L368.226 170.162H386.166L391.868 140.722L433.742 130.993L433.711 131.024L433.68 131.014Z" fill="black"/>
<path d="M544.186 310.009C544.467 301.708 545.331 292.291 546.174 282.28H545.31C532.49 305.442 514.831 313.148 498.597 313.148C473.539 313.148 456.442 293.72 456.442 264.53C456.442 217.341 487.504 167.044 556.143 167.044C572.647 167.044 590.618 170.183 602.293 173.917L587.486 247.094C584.083 265.094 581.513 292.541 582.064 309.978H544.186V310.009ZM556.143 199.373C553.01 198.81 549.014 198.226 545.029 198.226C518.545 198.226 499.159 230.836 499.159 256.824C499.159 270.537 504.581 279.985 515.975 279.985C528.213 279.985 543.322 265.97 549.587 231.68L556.153 199.383L556.143 199.373Z" fill="black"/>
<path d="M612.261 310.009L629.92 215.662C633.333 197.944 635.623 182.499 637.319 170.215H673.771L670.92 193.376H671.482C684.583 175.064 701.961 167.076 720.484 167.076C743.284 167.076 756.104 181.092 756.104 205.098C756.104 211.376 754.959 221.982 753.815 228.823L738.424 310.02H697.414L711.941 232.556C712.804 227.707 713.366 221.982 713.366 216.83C713.366 207.1 709.953 200.259 699.703 200.259C686.321 200.259 670.649 217.143 664.947 248.012L653.271 310.061H612.261V310.03V310.009Z" fill="black"/>
<path d="M822.951 170.016L816.947 201.364H865.054L871.059 170.016H822.951Z" fill="black"/>
<path d="M853.254 122.244L828.727 248.804C827.582 254.529 826.437 261.673 826.437 266.522C826.437 273.395 829.289 278.244 838.113 278.244C841.828 278.244 846.688 278.244 850.371 277.681L844.034 309.978C838.894 311.97 829.258 313.117 820.433 313.117C795.937 313.117 784.262 300.53 784.262 283.093C784.262 275.387 785.125 267.649 787.113 257.074L797.925 201.313H780.266L785.968 170.163H803.898L813.149 122.223H853.212L853.264 122.254L853.254 122.244Z" fill="black"/>
<path d="M1076.74 177.337H971.964L957.854 251.828H1080.35L1069.87 308.038H881.817L940.091 0H1121.78L1110.85 56.2098H995.201L982.464 122.014H1087.25L1076.77 177.306L1076.74 177.337Z" fill="#006397"/>
<path d="M1144.05 0H1323.92L1312.99 56.2098H1199.16L1185.05 128.407H1292.04L1281.12 184.168H1174.58L1151.36 308.007H1085.8L1144.05 0Z" fill="#006397"/>
<path d="M1354.15 57.5864H1164.24L1175.61 0H1512.59L1501.67 57.5864H1419.7L1372.8 308.038H1307.24L1354.15 57.5864Z" fill="#006397"/>
<path d="M648.992 80.8003L645.142 101.094H884.793L888.654 80.8003H649.003H648.992Z" fill="#006397"/>
<path d="M15.0908 478.451H0.0332031V374.906H19.7007V419.936C22.9682 411.051 31.6572 403.981 44.5919 403.981C65.8827 403.981 77.1941 420.916 77.1941 442.274C77.1941 463.632 65.8827 480.401 44.2902 480.401C31.6884 480.401 22.4999 473.508 18.7329 464.445L15.1324 478.409L15.1012 478.44L15.0908 478.451ZM19.5029 443.599C19.5029 456.916 27.3491 464.967 38.494 464.967C50.95 464.967 57.3186 455.935 57.3186 442.285C57.3186 428.634 50.9188 419.436 38.494 419.436C27.3491 419.436 19.5029 427.653 19.5029 440.804V443.609V443.599Z" fill="black"/>
<path d="M99.252 505.398L110.397 478.764L80.4275 405.952H101.073L120.741 455.435H121.386L140.887 405.952H160.055L118.628 505.398H99.2729H99.252Z" fill="black"/>
<path d="M458.737 422.21H447.81V404.179H458.737V396.858C458.737 379.442 471.557 370.609 488.685 370.609C494.19 370.557 499.664 371.371 504.919 373.05V390.152C501.235 388.943 497.374 388.327 493.493 388.307C485.896 388.307 482.234 391.842 482.234 398.537V404.168H505.814V422.199H481.932V480.881H458.747V422.199L458.737 422.21Z" fill="black"/>
<path d="M282.385 459.189C282.385 446.8 291.21 437.8 311.127 437.8H335.623V432.753C335.623 423.617 330.451 419.936 319.816 419.936C311.127 419.936 306.132 423.607 306.132 429.718C306.132 430.167 306.132 431.397 306.267 432.92H284.977C284.779 431.46 284.664 429.979 284.644 428.488C284.644 413.21 298.026 404.179 320.846 404.179C343.667 404.179 358.724 414.858 358.724 435.047V480.828H335.592C336.258 475.729 336.653 470.619 336.788 465.488H336.622C334.332 476.167 325.81 481.976 312.126 481.976C294.55 482.059 282.375 474.436 282.375 459.179L282.385 459.189ZM335.633 451.931V450.419H313.26C307.006 450.419 303.229 453.339 303.229 457.625C303.229 463.402 308.234 466.489 316.611 466.489C328.682 466.374 335.633 461.025 335.633 451.962V451.931Z" fill="black"/>
<path fill-rule="evenodd" clip-rule="evenodd" d="M384.498 404.158H361.615L382.011 480.87H399.67C396.32 490.037 391.148 493.426 383.052 493.426C379.701 493.426 376.371 493.009 373.135 492.164V509.997C377.942 511.509 383 512.208 388.026 512.041C402.553 512.041 414.957 503.177 421.492 480.86L442.023 404.179H419.088L402.043 472.642L384.498 404.179V404.147V404.158Z" fill="black"/>
<path d="M508.679 459.189C508.679 446.8 517.535 437.8 537.452 437.8H561.927V432.753C561.927 423.617 556.755 419.936 546.12 419.936C537.462 419.936 532.436 423.607 532.436 429.718C532.436 430.782 532.488 431.846 532.603 432.92H511.291C511.093 431.46 511.01 429.979 510.979 428.488C510.979 413.21 524.496 404.179 547.182 404.179C571.064 404.179 585.06 414.858 585.06 435.047V480.828H561.896C562.51 475.75 562.874 470.681 562.988 465.582H562.822C560.564 476.261 552.01 482.069 538.326 482.069C520.865 482.069 508.69 474.446 508.69 459.189H508.679ZM561.927 451.931V450.419H539.554C533.321 450.419 529.523 453.339 529.523 457.625C529.523 463.402 534.549 466.489 543.04 466.489C554.945 466.374 561.927 461.025 561.927 451.962V451.931Z" fill="black"/>
<path d="M593.716 455.383H614.362C614.362 462.36 617.879 466.938 631.064 466.938C643.072 466.938 647.235 463.434 647.235 457.938C647.235 455.216 645.892 453.058 641.844 452.129C636.059 451.066 630.252 450.367 624.383 450.023C613.602 449.095 605.246 447.301 600.72 444.214C598.461 442.473 596.609 440.262 595.381 437.686C594.153 435.11 593.508 432.274 593.571 429.447C593.571 413.21 610.272 404.158 631.064 404.158C655.643 404.158 666.902 413.606 666.902 431.241H646.569C646.402 423.336 642.77 419.217 631.376 419.217C621.063 419.217 616.516 422.721 616.516 427.883C616.381 429.479 616.849 431.085 617.858 432.347C618.868 433.608 620.314 434.422 621.906 434.62C628.025 435.715 634.227 436.466 640.429 436.893C649.67 437.822 656.215 438.75 661.824 441.941C664.394 443.484 666.517 445.674 667.995 448.281C669.452 450.888 670.201 453.861 670.17 456.864C670.17 472.705 656.673 481.986 631.032 481.986C604.799 481.872 593.706 470.598 593.706 455.404L593.716 455.383Z" fill="black"/>
<path fill-rule="evenodd" clip-rule="evenodd" d="M686.763 377.325L713.527 377.377V383.634C713.496 394.908 704.474 404.012 693.298 404.189H731.228V422.22H707.117V453.589C707.117 461.379 710.801 463.819 719.917 463.819C723.434 463.819 726.951 463.423 730.417 462.756V480.307C725.609 481.339 720.718 481.882 715.806 481.965C692.393 481.965 683.985 471.589 683.985 454.799V422.189H673.038V404.158H686.722V377.294L686.753 377.325H686.763Z" fill="black"/>
<path d="M194.036 405.42H216.94L216.493 420.781H216.628C219.5 410.436 229.084 404.179 241.998 404.179C262.924 404.179 276.608 419.123 276.608 441.356C276.608 465.717 262.924 481.955 241.831 481.955C228.168 481.955 219.677 476.323 216.357 467.209C216.659 472.225 217.107 479.681 217.107 482.434V510.925H194.057V405.42H194.026H194.036ZM253.653 442.285C253.653 430.094 246.67 421.876 236.191 421.876C224.682 421.876 216.94 430.229 216.94 442.879V446.247C216.94 457.072 224.682 464.216 236.358 464.216C246.67 464.216 253.653 455.383 253.653 442.295V442.285Z" fill="black"/>
</g>
<defs>
<clipPath id="clip0_4022_92">
<rect width="1512.18" height="512" fill="white" transform="translate(0.411377)"/>
</clipPath>
</defs>
</svg>
