<svg width="34" height="21" viewBox="0 0 34 21" fill="none" xmlns="http://www.w3.org/2000/svg">
<g clip-path="url(#clip0_853_1446)">
<path d="M13.2082 10.368C13.2082 7.22905 14.687 4.43037 16.9952 2.60741C15.2658 1.23585 13.067 0.416382 10.6705 0.416382C5.08343 0.416382 0.555176 4.87135 0.555176 10.368C0.555176 15.8647 5.08343 20.3197 10.6705 20.3197C13.067 20.3197 15.2658 19.5002 16.9988 18.1286C14.6905 16.3057 13.2117 13.507 13.2117 10.368H13.2082Z" fill="#EB001B"/>
<path d="M23.3234 0.416382C20.9269 0.416382 18.7281 1.23585 16.9951 2.60741C19.3034 4.43037 20.7822 7.22905 20.7822 10.368C20.7822 13.507 19.3034 16.3057 16.9951 18.1286C18.7281 19.4967 20.9269 20.3197 23.3234 20.3197C28.9105 20.3197 33.4387 15.8647 33.4387 10.368C33.4387 4.87135 28.9105 0.416382 23.3234 0.416382Z" fill="#F79D1C"/>
<path d="M20.7861 10.368C20.7861 7.22906 19.3072 4.43038 16.999 2.60742C14.6907 4.43038 13.2119 7.22906 13.2119 10.368C13.2119 13.507 14.6907 16.3057 16.999 18.1286C19.3072 16.3057 20.7861 13.507 20.7861 10.368Z" fill="#FF5A00"/>
</g>
<defs>
<clipPath id="clip0_853_1446">
<rect width="32.8837" height="19.9033" fill="white" transform="translate(0.555176 0.416382)"/>
</clipPath>
</defs>
</svg>
