<svg width="147" height="26" viewBox="0 0 147 26" fill="none" xmlns="http://www.w3.org/2000/svg">
<path d="M147.001 5.13131C147.001 7.46736 145.103 9.34678 142.762 9.34678C140.415 9.34678 138.484 7.40118 138.504 5.06514C138.524 2.74233 140.435 0.856288 142.762 0.84967C145.136 0.84967 147.007 2.73571 147.001 5.1247V5.13131ZM146.181 5.10484C146.181 3.19895 144.686 1.69012 142.789 1.67688C140.884 1.66365 139.33 3.2188 139.337 5.1247C139.343 6.99088 140.897 8.51957 142.775 8.51957C144.673 8.51957 146.174 7.00412 146.174 5.10484H146.181Z" fill="black"/>
<path d="M141.052 6.79236V3.39893H142.761C143.105 3.39893 143.369 3.43135 143.547 3.49079C143.725 3.55023 143.867 3.6583 143.977 3.815C144.082 3.9717 144.137 4.13921 144.137 4.32834C144.137 4.5715 144.051 4.77143 143.873 4.93894C143.695 5.10645 143.424 5.20912 143.049 5.25235C143.185 5.31179 143.289 5.36582 143.357 5.41986C143.504 5.53874 143.646 5.69004 143.781 5.87376L144.451 6.79777H143.805L143.295 6.0899C143.148 5.88457 143.025 5.72786 142.926 5.61979C142.828 5.51172 142.742 5.43607 142.668 5.39284C142.595 5.34961 142.515 5.31719 142.435 5.30098C142.379 5.29017 142.281 5.28477 142.152 5.28477H141.562V6.79236H141.052ZM141.562 4.89571H142.662C142.896 4.89571 143.08 4.8741 143.209 4.83087C143.338 4.78764 143.443 4.7228 143.51 4.62554C143.578 4.53367 143.615 4.43101 143.615 4.32294C143.615 4.16083 143.547 4.03114 143.418 3.92848C143.283 3.82581 143.074 3.77177 142.791 3.77177H141.568V4.89571H141.562Z" fill="black" stroke="black" stroke-width="0.5" stroke-miterlimit="10"/>
<path d="M123.213 14.8616C123.213 12.7349 123.213 10.6082 123.213 8.48155C123.213 8.31609 123.222 8.15467 123.213 7.98922C123.209 7.75516 123.325 7.64621 123.561 7.65024C123.705 7.65024 123.846 7.65024 123.991 7.65024C127.028 7.65024 130.07 7.65024 133.108 7.65024C133.203 7.65024 133.298 7.65831 133.393 7.65024C133.724 7.62603 133.869 7.75516 133.864 8.09011C133.844 9.63972 134.022 9.33303 132.649 9.34513C130.426 9.36531 128.198 9.34514 125.974 9.34917C125.21 9.34917 125.21 9.34917 125.21 10.124C125.21 11.0602 125.21 11.9924 125.21 12.9286C125.21 13.7034 125.21 13.7034 125.974 13.7034C128.128 13.7034 130.281 13.7034 132.434 13.7034C133.063 13.7034 133.375 14.0101 133.373 14.6235C133.373 14.7648 133.373 14.902 133.373 15.0432C133.377 15.3257 133.253 15.4831 132.947 15.4831C132.777 15.4831 132.612 15.4831 132.443 15.4831C130.36 15.4831 128.281 15.4831 126.198 15.4831C126.028 15.4831 125.863 15.4952 125.693 15.4831C125.317 15.4508 125.193 15.6203 125.197 15.9754C125.21 17.0973 125.202 18.2191 125.202 19.341C125.202 19.5064 125.214 19.6678 125.202 19.8333C125.164 20.2086 125.354 20.3135 125.71 20.3095C126.809 20.2974 127.913 20.3054 129.012 20.3054C130.566 20.3054 132.124 20.3054 133.678 20.3054C134.232 20.3054 134.253 20.3176 134.249 20.8502C134.236 22.3232 134.451 22.073 133.021 22.081C130.079 22.0932 127.136 22.0851 124.193 22.0851C124.048 22.0851 123.904 22.0851 123.763 22.0851C123.226 22.0689 123.213 22.0689 123.209 21.5201C123.205 19.3006 123.209 17.0811 123.209 14.8616H123.213Z" fill="#818089"/>
<path d="M95.5275 7.66308C96.4742 7.66308 97.4209 7.64695 98.3676 7.66308C101.233 7.72762 103.312 9.25623 104.065 11.8779C104.771 14.3462 104.697 16.7743 103.462 19.1015C102.542 20.8358 100.98 21.7231 98.9657 21.953C96.7324 22.2031 94.4862 22.0296 92.2485 22.0821C91.8957 22.0901 91.7451 21.957 91.7709 21.6263C91.7838 21.465 91.7709 21.2996 91.7709 21.1342C91.7709 16.9316 91.7709 12.7249 91.7709 8.52217C91.7709 8.40521 91.7709 8.28824 91.7709 8.17128C91.7881 7.66712 91.7881 7.65502 92.3131 7.65099C93.3846 7.64292 94.456 7.65099 95.5275 7.65099V7.66308ZM93.8493 14.8423C93.8493 16.4758 93.845 18.1093 93.8493 19.7387C93.8493 20.2792 93.8665 20.2913 94.4345 20.2953C95.7039 20.2953 96.9733 20.3236 98.2385 20.2671C99.5079 20.2106 100.627 19.7912 101.337 18.7223C101.707 18.1698 101.969 17.5688 102.116 16.9195C102.4 15.653 102.477 14.3785 102.232 13.104C101.789 10.8332 100.485 9.37723 97.7522 9.35706C96.6592 9.349 95.5619 9.34496 94.4689 9.349C93.8665 9.349 93.8536 9.3611 93.8536 9.94189C93.8493 11.5754 93.8536 13.2088 93.8536 14.8383L93.8493 14.8423Z" fill="#818089"/>
<path d="M73.9215 14.9328C73.9571 16.3156 73.7082 17.6203 73.1652 18.8429C72.3183 20.753 70.9446 21.749 69.2217 22.0185C67.9417 22.2217 66.6876 22.0263 65.5434 21.1826C64.1599 20.1631 63.3809 18.6437 63.048 16.7843C62.7539 15.1438 62.8476 13.5032 63.2969 11.9095C63.9951 9.42523 65.8149 7.74169 68.1454 7.65185C69.6032 7.59717 70.9155 8.04246 72.0371 9.20648C73.0327 10.2416 73.5466 11.5853 73.8084 13.1087C73.9118 13.7141 73.928 14.3196 73.9248 14.9289L73.9215 14.9328ZM72.3506 14.6985C72.3797 14.3665 72.3054 13.8313 72.2213 13.3001C71.7914 10.5111 70.0525 9.12055 68.1195 9.28461C66.6262 9.41351 65.2169 10.6088 64.8064 12.3275C64.4864 13.6712 64.412 15.0149 64.5737 16.4055C64.8129 18.4835 66.2803 20.3155 67.9708 20.46C69.5579 20.5967 70.783 19.9483 71.646 18.3468C72.2052 17.3078 72.3345 16.1242 72.3474 14.6985H72.3506Z" fill="#818089"/>
<path d="M39.0189 22.0877C37.93 22.1229 36.8371 21.9704 35.8046 21.466C34.6028 20.8795 33.7519 19.9725 33.2236 18.7956C32.0218 16.1057 31.8967 13.3962 33.3325 10.7493C34.2358 9.07983 35.7603 8.16103 37.6477 7.80524C39.0995 7.53155 40.5312 7.58238 41.8903 8.20795C43.2938 8.85306 44.2133 9.91652 44.7214 11.3319C44.8343 11.6486 44.7375 11.8049 44.4149 11.8636C44.3705 11.8714 44.3221 11.8753 44.2778 11.887C43.8906 11.9692 43.4873 12.1607 43.1244 12.1021C42.6848 12.0317 42.7332 11.4922 42.5436 11.1755C41.7975 9.92825 40.7087 9.29877 39.2205 9.28314C38.0913 9.27141 37.0508 9.49426 36.1474 10.2019C35.5506 10.6711 35.1029 11.238 34.8529 11.934C34.1431 13.9006 34.1269 15.8868 34.865 17.8416C35.4336 19.3508 36.5991 20.211 38.2445 20.4456C39.7529 20.6645 41.0636 20.3126 42.104 19.1866C42.5477 18.7057 42.8058 18.1271 43.0155 17.521C43.205 16.9737 43.2091 16.9737 43.81 17.1144C44.1044 17.1848 44.3988 17.2591 44.6932 17.3216C45.0158 17.3881 45.0884 17.5406 44.9997 17.8573C44.2778 20.3674 42.0597 22.1268 39.4947 22.0838C39.3536 22.0838 39.2165 22.0838 39.0269 22.0838L39.0189 22.0877Z" fill="#818089"/>
<path d="M3.6661 16.654L0 16.9977V9.31961C0.398761 10.2343 1.02665 11.0625 1.88368 11.8037C3.02203 12.7898 5.00539 13.6208 7.83222 14.2969C10.0291 14.8261 11.4372 15.1922 12.0547 15.3979C12.9582 15.7079 13.5887 16.0714 13.952 16.4909C14.3126 16.9078 14.4948 17.4156 14.4948 18.0115C14.4948 18.9388 14.0642 19.7512 13.204 20.4433C12.3433 21.1354 11.0635 21.4828 9.36619 21.4828C7.7628 21.4828 6.48822 21.0954 5.54508 20.315C4.60141 19.5374 3.97613 18.3161 3.6661 16.654Z" fill="#B8EB01"/>
<path d="M0 4.2308V0H5.79979C5.10508 0.141674 4.46153 0.334073 3.86966 0.577232C2.4505 1.15978 1.36278 2.01227 0.609103 3.12928C0.367445 3.48773 0.164411 3.85494 0 4.2308Z" fill="#B8EB01"/>
<path d="M12.3726 0C14.0323 0.326049 15.3779 0.920635 16.4082 1.78245C17.237 2.47614 17.8681 3.28619 18.3028 4.21224V0H12.3726Z" fill="#B8EB01"/>
<path d="M18.3028 7.36593L13.7437 7.56002C13.5193 6.26395 13.0328 5.33395 12.2927 4.76742C11.5495 4.20089 10.4377 3.91764 8.9523 3.91764C7.46634 3.91764 6.22099 4.22229 5.35509 4.82891C4.79662 5.21906 4.51895 5.74015 4.51895 6.39222C4.51895 6.98814 4.78044 7.49856 5.30186 7.92346C5.96733 8.46327 7.58116 9.02445 10.1465 9.60703C12.7123 10.1923 14.6096 10.7962 15.8388 11.4215C16.8357 11.9288 17.6572 12.5855 18.3028 13.3946V7.36593Z" fill="#B8EB01"/>
<path d="M18.3028 22.3649C17.4886 23.4705 16.3847 24.3028 14.9917 24.866C14.3304 25.1321 13.5986 25.3407 12.7959 25.4913H18.3028V22.3649Z" fill="#B8EB01"/>
<path d="M6.00595 25.4913C4.2632 25.1498 2.82891 24.5109 1.70465 23.5753C1.03448 23.0172 0.466091 22.3625 0 21.6109V25.4913H6.00595Z" fill="#B8EB01"/>
</svg>
