<svg width="400" height="217" viewBox="0 0 400 217" fill="none" xmlns="http://www.w3.org/2000/svg">
<path d="M400 102.131C400 108.581 397.438 114.768 392.877 119.329C388.316 123.89 382.129 126.452 375.679 126.452H194.104C187.653 126.452 181.467 123.89 176.906 119.329C172.345 114.768 169.783 108.581 169.783 102.131C169.783 95.6809 172.345 89.4948 176.906 84.9337C181.467 80.3727 187.653 77.8103 194.104 77.8103H375.679C382.129 77.8103 388.316 80.3727 392.877 84.9337C397.438 89.4948 400 95.6809 400 102.131Z" fill="#13110C"/>
<path d="M0 139.784H39.9537C41.9282 157.01 45.496 164.091 52.9993 170.613C60.5025 177.136 72.0637 180.227 83.4752 180.227C97.0927 180.227 107.319 177.899 114.264 172.22C121.209 166.542 124.695 159.842 124.763 152.148C124.929 147.558 123.424 143.063 120.528 139.498C117.669 136.002 112.639 132.943 105.44 130.319C100.511 128.558 89.2808 125.417 71.7505 120.896C49.1818 115.095 33.3765 108.073 24.3344 99.8298C11.6248 88.2095 5.33352 74.1381 5.46061 57.6156C5.55145 46.9899 8.79304 36.6301 14.775 27.8478C20.8938 18.6423 29.6453 11.6657 41.0295 6.91769C52.4137 2.16972 66.1401 -0.136171 82.2088 3.51807e-06C108.427 0.23604 128.109 6.15965 141.254 17.7708C154.409 29.3729 161.217 46.2586 161.68 65.432H119.466C117.814 54.6924 114.033 46.9531 108.123 42.2142C102.213 37.4753 93.3297 35.0423 81.4734 34.9152C69.2177 34.8063 59.5992 37.2393 52.618 42.2142C50.4927 43.6236 48.7555 45.5442 47.5658 47.7998C46.3762 50.0554 45.7721 52.5737 45.8092 55.1236C45.7957 57.5762 46.3447 59.9993 47.4141 62.2066C48.4835 64.4138 50.0448 66.3465 51.9779 67.8559C57.2434 72.3951 70.121 77.1658 90.6107 82.1679C111.101 87.1701 126.23 92.3129 135.998 97.5965C145.44 102.525 153.359 109.936 158.902 119.03C164.349 128.045 167.032 139.157 166.95 152.366C166.853 164.305 163.286 175.958 156.683 185.906C149.857 196.376 139.916 204.44 128.263 208.96C116.007 213.931 100.511 216.191 82.7398 216.191C63.8252 216.191 35.9774 210.744 22.0603 196.827C9.28713 184.068 1.70219 167.659 0 139.784Z" fill="#13110C"/>
<path d="M220.222 178.267V140.887H179.247V213.4H244.543V178.267H220.222Z" fill="#3299CF"/>
<path d="M225.192 31.0615C225.195 35.8292 223.784 40.4906 221.137 44.4561C218.49 48.4216 214.727 51.513 210.323 53.3394C205.919 55.1658 201.072 55.6451 196.396 54.7166C191.719 53.7881 187.423 51.4936 184.051 48.1233C180.679 44.753 178.382 40.4583 177.451 35.7824C176.519 31.1065 176.996 26.2595 178.82 21.8545C180.644 17.4494 183.733 13.6843 187.697 11.0352C191.661 8.38611 196.322 6.97216 201.089 6.97216C204.254 6.97037 207.388 7.59214 210.312 8.80194C213.236 10.0117 215.894 11.7859 218.132 14.0229C220.37 16.26 222.146 18.9162 223.357 21.8398C224.569 24.7633 225.192 27.8969 225.192 31.0615Z" fill="#FCC700"/>
<path d="M249.5 7.59856V41.8057C249.5 41.8057 262.763 41.6831 269.354 41.8057C275.285 41.9321 281.201 42.4736 287.057 43.4262C302.036 45.7548 314.169 51.5013 318.704 66.0721H361.149C361.149 66.0721 348.703 13.2362 285.722 8.17049C281.106 7.87091 278.083 7.72112 271.56 7.66665C259.481 7.57133 249.5 7.66665 249.5 7.66665" fill="#3299CF"/>
<path d="M322.462 141.785H364.799C364.799 141.785 359.651 213.509 268.864 213.4V178.267C268.864 178.267 314.169 180.377 322.462 141.785Z" fill="#3299CF"/>
<path d="M207.231 108.354C207.269 109.395 207.063 110.43 206.627 111.376C206.192 112.323 205.541 113.153 204.725 113.801C202.692 115.256 200.221 115.968 197.726 115.817C195.211 115.904 192.71 115.415 190.413 114.387V109.239C191.842 109.902 193.322 110.448 194.839 110.874C195.916 111.179 197.029 111.339 198.148 111.35C199.103 111.4 200.052 111.163 200.872 110.669C201.19 110.433 201.443 110.122 201.61 109.763C201.776 109.403 201.85 109.008 201.825 108.613C201.837 108.125 201.688 107.647 201.403 107.251C201.066 106.799 200.645 106.415 200.163 106.121C199.084 105.468 197.965 104.881 196.814 104.364C195.541 103.818 194.35 103.098 193.273 102.226C192.495 101.56 191.853 100.751 191.38 99.8434C190.713 98.4293 190.511 96.8405 190.802 95.3044C191.093 93.7683 191.863 92.3637 193.001 91.2916C194.833 89.8882 197.11 89.192 199.414 89.3307C200.709 89.3281 202 89.4882 203.255 89.8073C204.559 90.1619 205.834 90.6172 207.067 91.1691L205.311 95.4313C204.203 94.9515 203.06 94.5555 201.893 94.2466C201.026 94.0215 200.133 93.9071 199.237 93.9062C198.382 93.8503 197.535 94.1067 196.854 94.6279C196.583 94.8614 196.368 95.1526 196.224 95.4802C196.081 95.8077 196.012 96.1632 196.024 96.5207C196.011 96.9671 196.13 97.4073 196.364 97.7872C196.641 98.2038 197.003 98.5566 197.426 98.8221C198.546 99.4953 199.706 100.1 200.899 100.633C202.786 101.413 204.478 102.599 205.856 104.106C206.784 105.324 207.27 106.823 207.231 108.354Z" fill="white"/>
<path d="M220.603 115.871C219.249 115.952 217.893 115.761 216.613 115.31C215.334 114.858 214.158 114.156 213.154 113.243C212.216 112.253 211.49 111.082 211.021 109.801C210.553 108.52 210.352 107.156 210.431 105.794C210.247 103.016 211.134 100.273 212.909 98.1276C213.782 97.2113 214.842 96.4938 216.017 96.0238C217.192 95.5539 218.454 95.3425 219.718 95.4041C220.909 95.3325 222.101 95.5072 223.221 95.9172C224.341 96.3272 225.364 96.9638 226.227 97.7872C227.034 98.6733 227.655 99.7116 228.055 100.841C228.455 101.97 228.625 103.168 228.556 104.364V106.979H215.824C215.809 108.302 216.296 109.581 217.185 110.56C217.656 111.018 218.215 111.375 218.829 111.61C219.442 111.844 220.097 111.95 220.753 111.922C221.889 111.928 223.022 111.805 224.13 111.554C225.273 111.281 226.382 110.883 227.439 110.37V114.537C226.482 115.007 225.472 115.359 224.43 115.585C223.167 115.809 221.885 115.905 220.603 115.871ZM219.841 99.2442C219.334 99.2133 218.828 99.2949 218.357 99.4833C217.886 99.6716 217.462 99.9621 217.117 100.334C216.419 101.209 216.031 102.291 216.014 103.411H223.558C223.614 102.291 223.245 101.192 222.523 100.334C222.178 99.9733 221.761 99.6899 221.298 99.5022C220.836 99.3144 220.339 99.2265 219.841 99.2442Z" fill="white"/>
<path d="M241.22 115.871C235.083 115.871 232.015 112.499 232.015 105.753C231.813 102.956 232.712 100.19 234.52 98.0459C235.456 97.111 236.58 96.3849 237.817 95.9155C239.054 95.4461 240.376 95.2439 241.697 95.3224C243.821 95.2973 245.923 95.7633 247.838 96.6842L246.259 100.851C245.414 100.511 244.625 100.238 243.889 100.02C243.178 99.8055 242.44 99.6954 241.697 99.6936C238.901 99.6936 237.503 101.682 237.503 105.658C237.503 109.634 238.901 111.564 241.697 111.446C242.675 111.456 243.649 111.314 244.584 111.023C245.524 110.697 246.414 110.238 247.225 109.662V114.387C246.412 114.908 245.52 115.295 244.584 115.531C243.479 115.769 242.35 115.883 241.22 115.871Z" fill="white"/>
<path d="M265.922 115.517L265.201 113.025H264.915C264.321 113.956 263.47 114.695 262.463 115.149C261.327 115.668 260.089 115.924 258.841 115.898C257.885 115.974 256.924 115.847 256.02 115.526C255.117 115.204 254.292 114.695 253.598 114.033C252.34 112.545 251.71 110.625 251.842 108.681V95.7854H257.221V107.306C257.146 108.429 257.412 109.549 257.983 110.52C258.262 110.886 258.63 111.176 259.051 111.361C259.473 111.547 259.935 111.623 260.394 111.582C261.023 111.637 261.655 111.526 262.229 111.261C262.802 110.996 263.296 110.585 263.662 110.07C264.453 108.529 264.802 106.8 264.669 105.073V95.7854H270.048V115.517H265.922Z" fill="white"/>
<path d="M286.866 95.4177C287.473 95.4099 288.08 95.46 288.677 95.5675L288.269 100.62C287.751 100.497 287.221 100.437 286.689 100.443C285.225 100.366 283.787 100.854 282.672 101.804C282.178 102.284 281.793 102.864 281.544 103.505C281.295 104.147 281.187 104.835 281.228 105.522V115.558H275.781V95.7854H279.867L280.67 99.1081H280.929C281.514 98.0071 282.366 97.0707 283.407 96.3846C284.44 95.7294 285.643 95.3931 286.866 95.4177Z" fill="white"/>
<path d="M301.341 115.871C299.987 115.953 298.63 115.763 297.351 115.312C296.071 114.86 294.895 114.157 293.893 113.243C292.951 112.255 292.223 111.084 291.755 109.802C291.286 108.521 291.087 107.156 291.169 105.794C290.985 103.016 291.872 100.273 293.647 98.1276C294.52 97.2106 295.579 96.4926 296.754 96.0225C297.93 95.5525 299.192 95.3416 300.456 95.4041C301.649 95.3314 302.844 95.5055 303.966 95.9156C305.088 96.3256 306.114 96.9627 306.979 97.7872C307.785 98.6733 308.407 99.7116 308.806 100.841C309.206 101.97 309.377 103.168 309.308 104.364V106.979H296.575C296.561 108.302 297.047 109.581 297.937 110.56C298.407 111.02 298.966 111.378 299.579 111.612C300.193 111.846 300.848 111.952 301.505 111.922C302.636 111.929 303.765 111.805 304.868 111.554C306.015 111.281 307.129 110.883 308.191 110.37V114.537C307.234 115.007 306.223 115.359 305.181 115.585C303.914 115.81 302.628 115.906 301.341 115.871ZM300.579 99.2442C300.072 99.2133 299.566 99.2949 299.095 99.4833C298.624 99.6716 298.2 99.9621 297.855 100.334C297.146 101.204 296.753 102.289 296.739 103.411H304.296C304.346 102.292 303.977 101.195 303.261 100.334C302.916 99.974 302.498 99.6911 302.036 99.5034C301.574 99.3157 301.077 99.2274 300.579 99.2442Z" fill="white"/>
<path d="M338.803 115.517H323.946V89.6439H338.803V94.1241H329.407V99.7889H338.149V104.283H329.407V110.928H338.803V115.517Z" fill="white"/>
<path d="M349.711 115.517H344.332V89.6439H359.12V94.1241H349.711V100.783H358.467V105.25H349.711V115.517Z" fill="white"/>
<path d="M374.304 115.517H368.857V94.2602H361.844V89.712H381.29V94.2602H374.277L374.304 115.517Z" fill="white"/>
</svg>
